<svg xmlns="http://www.w3.org/2000/svg" xmlns:xlink="http://www.w3.org/1999/xlink" width="129" zoomAndPan="magnify" viewBox="0 0 96.75 30.000001" height="40" preserveAspectRatio="xMidYMid meet" version="1.0"><defs><g/><clipPath id="4d0bc3c5d5"><path d="M 38.070312 1.058594 L 42.527344 1.058594 L 42.527344 5.515625 L 38.070312 5.515625 Z M 38.070312 1.058594 " clip-rule="nonzero"/></clipPath><clipPath id="ed3e9bd157"><path d="M 40.296875 1.058594 C 39.066406 1.058594 38.070312 2.054688 38.070312 3.285156 C 38.070312 4.515625 39.066406 5.515625 40.296875 5.515625 C 41.527344 5.515625 42.527344 4.515625 42.527344 3.285156 C 42.527344 2.054688 41.527344 1.058594 40.296875 1.058594 Z M 40.296875 1.058594 " clip-rule="nonzero"/></clipPath><clipPath id="fcaaaaa011"><path d="M 46.476562 1.058594 L 50.929688 1.058594 L 50.929688 5.515625 L 46.476562 5.515625 Z M 46.476562 1.058594 " clip-rule="nonzero"/></clipPath><clipPath id="30b6595f6f"><path d="M 48.703125 1.058594 C 47.472656 1.058594 46.476562 2.054688 46.476562 3.285156 C 46.476562 4.515625 47.472656 5.515625 48.703125 5.515625 C 49.933594 5.515625 50.929688 4.515625 50.929688 3.285156 C 50.929688 2.054688 49.933594 1.058594 48.703125 1.058594 Z M 48.703125 1.058594 " clip-rule="nonzero"/></clipPath></defs><g fill="#ff66c4" fill-opacity="1"><g transform="translate(1.439515, 22.019495)"><g><path d="M 1.59375 0 L 1.59375 -8.078125 C 1.59375 -9.242188 1.875 -10.300781 2.4375 -11.25 C 3 -12.195312 3.800781 -12.953125 4.84375 -13.515625 C 5.894531 -14.078125 7.144531 -14.359375 8.59375 -14.359375 C 10.050781 -14.359375 11.296875 -14.078125 12.328125 -13.515625 C 13.359375 -12.953125 14.144531 -12.195312 14.6875 -11.25 C 15.238281 -10.300781 15.515625 -9.242188 15.515625 -8.078125 L 15.515625 0 L 11.265625 0 L 11.265625 -7.96875 C 11.265625 -8.457031 11.144531 -8.90625 10.90625 -9.3125 C 10.675781 -9.726562 10.351562 -10.054688 9.9375 -10.296875 C 9.53125 -10.546875 9.070312 -10.671875 8.5625 -10.671875 C 8.03125 -10.671875 7.554688 -10.546875 7.140625 -10.296875 C 6.734375 -10.054688 6.410156 -9.726562 6.171875 -9.3125 C 5.941406 -8.90625 5.828125 -8.457031 5.828125 -7.96875 L 5.828125 0 Z M 1.59375 0 "/></g></g></g><g fill="#ff66c4" fill-opacity="1"><g transform="translate(18.538978, 22.019495)"><g><path d="M 9 -14.359375 C 10.1875 -14.359375 11.238281 -14.171875 12.15625 -13.796875 C 13.082031 -13.421875 13.867188 -12.890625 14.515625 -12.203125 C 15.160156 -11.523438 15.65625 -10.722656 16 -9.796875 C 16.351562 -8.878906 16.53125 -7.863281 16.53125 -6.75 C 16.53125 -5.363281 16.238281 -4.140625 15.65625 -3.078125 C 15.082031 -2.015625 14.296875 -1.179688 13.296875 -0.578125 C 12.296875 0.0234375 11.128906 0.328125 9.796875 0.328125 C 9.234375 0.328125 8.695312 0.253906 8.1875 0.109375 C 7.6875 -0.0351562 7.226562 -0.242188 6.8125 -0.515625 C 6.40625 -0.796875 6.066406 -1.132812 5.796875 -1.53125 L 5.71875 -1.53125 L 5.71875 5.9375 L 1.484375 5.9375 L 1.484375 -6.75 C 1.484375 -8.300781 1.789062 -9.640625 2.40625 -10.765625 C 3.03125 -11.898438 3.90625 -12.78125 5.03125 -13.40625 C 6.164062 -14.039062 7.488281 -14.359375 9 -14.359375 Z M 9 -10.703125 C 8.34375 -10.703125 7.769531 -10.539062 7.28125 -10.21875 C 6.800781 -9.894531 6.429688 -9.457031 6.171875 -8.90625 C 5.921875 -8.351562 5.796875 -7.726562 5.796875 -7.03125 C 5.796875 -6.332031 5.921875 -5.707031 6.171875 -5.15625 C 6.429688 -4.613281 6.800781 -4.179688 7.28125 -3.859375 C 7.769531 -3.546875 8.34375 -3.390625 9 -3.390625 C 9.65625 -3.390625 10.21875 -3.546875 10.6875 -3.859375 C 11.164062 -4.179688 11.535156 -4.613281 11.796875 -5.15625 C 12.066406 -5.707031 12.203125 -6.332031 12.203125 -7.03125 C 12.203125 -7.726562 12.066406 -8.351562 11.796875 -8.90625 C 11.535156 -9.457031 11.164062 -9.894531 10.6875 -10.21875 C 10.21875 -10.539062 9.65625 -10.703125 9 -10.703125 Z M 9 -10.703125 "/></g></g></g><g fill="#ff66c4" fill-opacity="1"><g transform="translate(35.994109, 22.019495)"><g><path d="M 8.53125 0.328125 C 7.09375 0.328125 5.796875 0.0078125 4.640625 -0.625 C 3.492188 -1.269531 2.585938 -2.144531 1.921875 -3.25 C 1.265625 -4.363281 0.9375 -5.613281 0.9375 -7 C 0.9375 -8.40625 1.265625 -9.660156 1.921875 -10.765625 C 2.585938 -11.867188 3.492188 -12.742188 4.640625 -13.390625 C 5.796875 -14.035156 7.09375 -14.359375 8.53125 -14.359375 C 9.976562 -14.359375 11.269531 -14.035156 12.40625 -13.390625 C 13.550781 -12.742188 14.453125 -11.867188 15.109375 -10.765625 C 15.773438 -9.660156 16.109375 -8.40625 16.109375 -7 C 16.109375 -5.613281 15.773438 -4.363281 15.109375 -3.25 C 14.453125 -2.144531 13.546875 -1.269531 12.390625 -0.625 C 11.242188 0.0078125 9.957031 0.328125 8.53125 0.328125 Z M 8.53125 -3.359375 C 9.207031 -3.359375 9.789062 -3.519531 10.28125 -3.84375 C 10.78125 -4.175781 11.164062 -4.613281 11.4375 -5.15625 C 11.707031 -5.707031 11.84375 -6.332031 11.84375 -7.03125 C 11.84375 -7.707031 11.707031 -8.316406 11.4375 -8.859375 C 11.164062 -9.410156 10.78125 -9.847656 10.28125 -10.171875 C 9.789062 -10.503906 9.207031 -10.671875 8.53125 -10.671875 C 7.863281 -10.671875 7.273438 -10.503906 6.765625 -10.171875 C 6.265625 -9.847656 5.878906 -9.410156 5.609375 -8.859375 C 5.335938 -8.316406 5.203125 -7.707031 5.203125 -7.03125 C 5.203125 -6.332031 5.335938 -5.707031 5.609375 -5.15625 C 5.878906 -4.613281 6.265625 -4.175781 6.765625 -3.84375 C 7.273438 -3.519531 7.863281 -3.359375 8.53125 -3.359375 Z M 8.53125 -3.359375 "/></g></g></g><g fill="#ff66c4" fill-opacity="1"><g transform="translate(53.038853, 22.019495)"><g><path d="M 9 -14.359375 C 10.1875 -14.359375 11.238281 -14.171875 12.15625 -13.796875 C 13.082031 -13.421875 13.867188 -12.890625 14.515625 -12.203125 C 15.160156 -11.523438 15.65625 -10.722656 16 -9.796875 C 16.351562 -8.878906 16.53125 -7.863281 16.53125 -6.75 C 16.53125 -5.363281 16.238281 -4.140625 15.65625 -3.078125 C 15.082031 -2.015625 14.296875 -1.179688 13.296875 -0.578125 C 12.296875 0.0234375 11.128906 0.328125 9.796875 0.328125 C 9.234375 0.328125 8.695312 0.253906 8.1875 0.109375 C 7.6875 -0.0351562 7.226562 -0.242188 6.8125 -0.515625 C 6.40625 -0.796875 6.066406 -1.132812 5.796875 -1.53125 L 5.71875 -1.53125 L 5.71875 5.9375 L 1.484375 5.9375 L 1.484375 -6.75 C 1.484375 -8.300781 1.789062 -9.640625 2.40625 -10.765625 C 3.03125 -11.898438 3.90625 -12.78125 5.03125 -13.40625 C 6.164062 -14.039062 7.488281 -14.359375 9 -14.359375 Z M 9 -10.703125 C 8.34375 -10.703125 7.769531 -10.539062 7.28125 -10.21875 C 6.800781 -9.894531 6.429688 -9.457031 6.171875 -8.90625 C 5.921875 -8.351562 5.796875 -7.726562 5.796875 -7.03125 C 5.796875 -6.332031 5.921875 -5.707031 6.171875 -5.15625 C 6.429688 -4.613281 6.800781 -4.179688 7.28125 -3.859375 C 7.769531 -3.546875 8.34375 -3.390625 9 -3.390625 C 9.65625 -3.390625 10.21875 -3.546875 10.6875 -3.859375 C 11.164062 -4.179688 11.535156 -4.613281 11.796875 -5.15625 C 12.066406 -5.707031 12.203125 -6.332031 12.203125 -7.03125 C 12.203125 -7.726562 12.066406 -8.351562 11.796875 -8.90625 C 11.535156 -9.457031 11.164062 -9.894531 10.6875 -10.21875 C 10.21875 -10.539062 9.65625 -10.703125 9 -10.703125 Z M 9 -10.703125 "/></g></g></g><g clip-path="url(#4d0bc3c5d5)"><g clip-path="url(#ed3e9bd157)"><path fill="#ff66c4" d="M 38.070312 1.058594 L 42.527344 1.058594 L 42.527344 5.515625 L 38.070312 5.515625 Z M 38.070312 1.058594 " fill-opacity="1" fill-rule="nonzero"/></g></g><g clip-path="url(#fcaaaaa011)"><g clip-path="url(#30b6595f6f)"><path fill="#ff66c4" d="M 46.476562 1.058594 L 50.929688 1.058594 L 50.929688 5.515625 L 46.476562 5.515625 Z M 46.476562 1.058594 " fill-opacity="1" fill-rule="nonzero"/></g></g></svg>